<?xml version="1.0" standalone="no"?><!DOCTYPE svg PUBLIC "-//W3C//DTD SVG 1.1//EN" "http://www.w3.org/Graphics/SVG/1.1/DTD/svg11.dtd"><svg t="1700552678030" class="icon" viewBox="0 0 1024 1024" version="1.1" xmlns="http://www.w3.org/2000/svg" p-id="883" xmlns:xlink="http://www.w3.org/1999/xlink" width="128" height="128"><path d="M628.898687 251.238839l7.964238 26.194307-7.964238-26.194307zM171.064584 390.357277l7.964238 26.23084-7.964238-26.23084z m-3.653321 222.414141l8.841036-25.938574-8.841036 25.938574z m125.308888 42.561182l-8.804502 25.938574 8.804502-25.938574z m73.431738 74.345069l-26.011641 8.512236 26.048174-8.512236z m41.136387 125.783819l26.048174-8.512237-26.048174 8.512237z m222.414141-1.02293l26.121241 8.32957v-0.036533l-26.121241-8.293037z m144.525352-456.117043l26.121241 8.256504-26.121241-8.256504z m-153.329854-173.313516L163.100345 364.126437l15.928477 52.46168L636.862925 277.433146l-15.96501-52.425147zM163.136879 364.126437c-134.259522 40.697988-137.182178 229.46505-4.530118 274.583556l17.645538-51.877149c-82.34584-28.020967-80.373047-145.036817 2.776523-170.244727l-15.891943-52.46168z m-4.530118 274.583556l125.308888 42.597715 17.645537-51.877149-125.308887-42.597715-17.645538 51.877149z m125.308888 42.597715c26.632705 9.023701 47.493164 30.139893 56.224599 56.882197l52.059815-17.024473a144.233086 144.233086 0 0 0-90.638877-91.771406l-17.645537 51.877148z m56.224599 56.882197l41.099854 125.783819 52.096348-17.024473-41.136387-125.783819-52.059815 17.024473z m41.099854 125.783819c43.584111 133.382725 232.058907 131.994463 274.583556-1.205596l-52.242481-16.65914c-26.413506 82.930371-143.319756 83.295703-170.244727 0.840263l-52.096348 17.024473z m274.583556-1.242129l144.525352-456.153576-52.242481-16.549541-144.525352 456.153576 52.242481 16.549541z m144.525352-456.153576c35.071875-110.732139-68.280557-215.3267-179.451095-181.57002l15.96501 52.425147c68.938155-20.933525 132.98086 43.91291 111.243604 112.595332l52.242481 16.549541z" p-id="884"></path></svg>